name C:\Users\r0593348\3dpredictsim\Results\Batchsim_tmt_linear_v2\Pog_s1_tmt_aCst_d00_k500_ig24.mot
datacolumns 128
datarows 4
range 0.00000000 0.03216040
endheader
time	pelvis_tilt	pelvis_list	pelvis_rotation	pelvis_tx	pelvis_ty	pelvis_tz	hip_flexion_l	hip_adduction_l	hip_rotation_l	hip_flexion_r	hip_adduction_r	hip_rotation_r	knee_angle_l	knee_angle_r	ankle_angle_l	ankle_angle_r	subtalar_angle_l	subtalar_angle_r	tmt_angle_l	tmt_angle_r	mtp_angle_l	mtp_angle_r	lumbar_extension	lumbar_bending	lumbar_rotation	arm_flex_l	arm_add_l	arm_rot_l	arm_flex_r	arm_add_r	arm_rot_r	elbow_flex_l	elbow_flex_r	pro_sup_l	pro_sup_r	glut_med1_l/activation	glut_med2_l/activation	glut_med3_l/activation	glut_min1_l/activation	glut_min2_l/activation	glut_min3_l/activation	semimem_l/activation	semiten_l/activation	bifemlh_l/activation	bifemsh_l/activation	sar_l/activation	add_long_l/activation	add_brev_l/activation	add_mag1_l/activation	add_mag2_l/activation	add_mag3_l/activation	tfl_l/activation	pect_l/activation	grac_l/activation	glut_max1_l/activation	glut_max2_l/activation	glut_max3_l/activation	iliacus_l/activation	psoas_l/activation	quad_fem_l/activation	gem_l/activation	peri_l/activation	rect_fem_l/activation	vas_med_l/activation	vas_int_l/activation	vas_lat_l/activation	med_gas_l/activation	lat_gas_l/activation	soleus_l/activation	tib_post_l/activation	flex_dig_l/activation	flex_hal_l/activation	tib_ant_l/activation	per_brev_l/activation	per_long_l/activation	per_tert_l/activation	ext_dig_l/activation	ext_hal_l/activation	ercspn_l/activation	intobl_l/activation	extobl_l/activation	glut_med1_r/activation	glut_med2_r/activation	glut_med3_r/activation	glut_min1_r/activation	glut_min2_r/activation	glut_min3_r/activation	semimem_r/activation	semiten_r/activation	bifemlh_r/activation	bifemsh_r/activation	sar_r/activation	add_long_r/activation	add_brev_r/activation	add_mag1_r/activation	add_mag2_r/activation	add_mag3_r/activation	tfl_r/activation	pect_r/activation	grac_r/activation	glut_max1_r/activation	glut_max2_r/activation	glut_max3_r/activation	iliacus_r/activation	psoas_r/activation	quad_fem_r/activation	gem_r/activation	peri_r/activation	rect_fem_r/activation	vas_med_r/activation	vas_int_r/activation	vas_lat_r/activation	med_gas_r/activation	lat_gas_r/activation	soleus_r/activation	tib_post_r/activation	flex_dig_r/activation	flex_hal_r/activation	tib_ant_r/activation	per_brev_r/activation	per_long_r/activation	per_tert_r/activation	ext_dig_r/activation	ext_hal_r/activation	ercspn_r/activation	intobl_r/activation	extobl_r/activation	
          0.00000000	         -2.90921044	          1.08901548	          4.80788005	          0.00000000	          0.87072480	         -0.00250003	        -17.41353015	          1.54284192	          6.42658430	         27.33076193	         -0.50671142	         -2.13217189	         -6.66902160	         -8.56524070	         -8.24807350	          6.21722117	          9.09528178	          4.38862468	          2.10509224	          0.07293312	         25.99044178	         -0.09013380	          0.51158634	         -3.07353003	         -1.57298455	          3.01725402	        -13.47729649	         10.76775449	         -9.45786415	        -13.45097721	         11.29767354	         27.40881301	         18.10101093	         86.51662706	         86.51662706	          0.29457506	          0.08640440	          0.07436861	          0.27030294	          0.16217581	          0.08813922	          0.05000165	          0.05000015	          0.05000012	          0.05000017	          0.08565445	          0.06533579	          0.05000034	          0.05000047	          0.05000131	          0.05000066	          0.23218498	          0.05000356	          0.05000052	          0.05000197	          0.05000130	          0.05000114	          0.30252657	          0.57301791	          0.05000012	          0.05000039	          0.05239148	          0.22799056	          0.09159320	          0.09297451	          0.07140344	          0.17854138	          0.25320000	          0.21705850	          0.19393296	          0.19957670	          0.25354846	          0.05000001	          0.09770181	          0.15604688	          0.05000014	          0.05000003	          0.05000011	          0.05000001	          0.05000002	          0.05000012	          0.10408776	          0.05000417	          0.08274189	          0.05000018	          0.05000036	          0.05893190	          0.05893347	          0.05893348	          0.05893353	          0.05000232	          0.05000072	          0.05000033	          0.09168539	          0.12933621	          0.14541060	          0.11661465	          0.05000516	          0.05000274	          0.05893338	          0.06946295	          0.09604918	          0.12859142	          0.05000007	          0.05000008	          0.16018680	          0.05003988	          0.06493994	          0.05000009	          0.05000243	          0.07740070	          0.05000137	          0.05893343	          0.05893342	          0.05893344	          0.05001037	          0.05023466	          0.05893307	          0.46308491	          0.26797520	          0.16678823	          0.19455941	          0.49400316	          0.22017780	          0.05000007	          0.13406691	          0.12880798	
          0.01072013	         -2.88938695	          1.12013645	          4.94582691	          0.01683845	          0.86955005	         -0.00235222	        -17.13672536	          1.40762085	          6.17325145	         26.80165793	         -0.30117412	         -1.91991686	         -8.94906535	         -8.77117550	         -8.92784254	          5.54852612	         10.17240693	          3.96529295	          1.90372287	          0.07217397	         26.77103383	         -0.07341202	          0.73139147	         -2.86781105	         -1.62636451	          2.75290142	        -13.50748172	         11.05672674	        -10.60116227	        -13.45047674	         11.07763010	         28.22935430	         18.13712597	         86.51662706	         86.51662706	          0.24992184	          0.07330678	          0.06309547	          0.22932907	          0.13759238	          0.07477865	          0.05000126	          0.05000015	          0.05000020	          0.05000012	          0.07267064	          0.14243087	          0.20398421	          0.12169755	          0.05000932	          0.05000243	          0.19698920	          0.06845231	          0.05000213	          0.05000225	          0.05000143	          0.05000189	          0.25666800	          0.48615687	          0.06083340	          0.05893445	          0.05893346	          0.19343056	          0.13406608	          0.13406680	          0.11949913	          0.15147714	          0.21481862	          0.18415563	          0.16453564	          0.16932405	          0.21511437	          0.05000001	          0.08289171	          0.13239264	          0.05000009	          0.05000006	          0.05000009	          0.05000012	          0.08187385	          0.07376168	          0.08830962	          0.05000026	          0.07019953	          0.05000333	          0.05000090	          0.05000035	          0.05000003	          0.05000007	          0.05000009	          0.05000005	          0.05000211	          0.08187653	          0.09757633	          0.23706456	          0.20299288	          0.11686339	          0.05000026	          0.05001063	          0.05000030	          0.05893353	          0.08148964	          0.14550394	          0.05001073	          0.05225084	          0.36061655	          0.12191692	          0.14788946	          0.08187405	          0.28718180	          0.30374326	          0.23822694	          0.05000000	          0.05000002	          0.05000000	          0.05000010	          0.05000127	          0.05000043	          0.55543242	          0.27413442	          0.17645206	          0.40137892	          0.54988280	          0.25065546	          0.05000001	          0.11374434	          0.10928259	
          0.02144027	         -2.86343477	          1.13143931	          5.06103740	          0.03390055	          0.86820585	         -0.00221476	        -16.76189538	          1.26430498	          5.90589851	         26.13842119	         -0.13928249	         -1.66415913	        -11.41537938	         -9.39779736	         -9.54517606	          4.85150984	         11.21114602	          3.51987045	          1.61361247	         -0.06988748	         27.10241509	         -0.13522387	          0.96444012	         -2.63029613	         -1.66933007	          2.42932109	        -13.54208319	         11.30161073	        -11.74194867	        -13.46253259	         10.92990825	         29.04764019	         18.15396354	         86.51662706	         86.51662706	          0.25865862	          0.06219456	          0.05353116	          0.19456629	          0.11673544	          0.06344333	          0.06389256	          0.05000018	          0.05000023	          0.05000004	          0.06165498	          0.14763575	          0.34873229	          0.10325090	          0.05893475	          0.08636736	          0.16712859	          0.05807686	          0.05000049	          0.05003558	          0.05891119	          0.05893277	          0.21776093	          0.44167034	          0.05161219	          0.05000106	          0.05000008	          0.16410933	          0.11374369	          0.11374429	          0.10138486	          0.12851543	          0.18225528	          0.15624034	          0.13959447	          0.14365711	          0.18250625	          0.05013897	          0.07035459	          0.14915280	          0.05000022	          0.16520401	          0.05000565	          0.05018794	          0.06946298	          0.06258061	          0.27982160	          0.19672229	          0.23053469	          0.05000030	          0.05000033	          0.27502714	          0.08099970	          0.09432129	          0.08160646	          0.05000013	          0.05000057	          0.06946546	          0.09650005	          0.20112916	          0.17222247	          0.12829709	          0.05000091	          0.06946184	          0.09647636	          0.05000027	          0.06913710	          0.12344780	          0.05893327	          0.05173447	          0.30595240	          0.10343618	          0.19158943	          0.06946315	          0.24364928	          0.25770027	          0.20211526	          0.05828188	          0.05893334	          0.05751872	          0.05000069	          0.05893348	          0.05893349	          0.47123707	          0.27878245	          0.14970467	          0.34053585	          0.59359782	          0.21265982	          0.05000001	          0.09650238	          0.09271696	
          0.03216040	         -2.83422345	          1.12728145	          5.15236783	          0.05097193	          0.86667315	         -0.00207802	        -16.28408625	          1.12031907	          5.62936732	         25.34427556	          0.00448577	         -1.39133225	        -14.05546203	        -10.00105006	         -9.97956299	          4.27247390	         12.17769182	          3.04710543	          1.23085711	         -0.01361069	         26.71767887	         -0.15761855	          1.19059523	         -2.36854191	         -1.70141244	          2.08370999	        -13.58344202	         11.52018194	        -12.83643449	        -13.48746845	         10.87932977	         29.85103537	         18.12560821	         86.51662706	         86.51662706	          0.21944981	          0.05276680	          0.05000001	          0.16507330	          0.09904011	          0.05382630	          0.08791567	          0.05000067	          0.05000042	          0.05000074	          0.05893483	          0.17581867	          0.30760713	          0.08759996	          0.05000238	          0.07327561	          0.14179443	          0.08193504	          0.05000101	          0.05000032	          0.05000021	          0.05000026	          0.18475159	          0.38300184	          0.05000002	          0.05000017	          0.05000018	          0.13923277	          0.09650184	          0.09650234	          0.08601642	          0.10903438	          0.15462808	          0.13255661	          0.11843407	          0.12188095	          0.15484110	          0.08779288	          0.09650913	          0.12654347	          0.10987273	          0.21832354	          0.10257865	          0.08507727	          0.05893342	          0.05309432	          0.33246382	          0.32605487	          0.36317377	          0.20111945	          0.19035866	          0.23334512	          0.06872142	          0.08485669	          0.06946469	          0.07225238	          0.05000160	          0.05893555	          0.08187209	          0.17064104	          0.18510072	          0.16341499	          0.05000017	          0.05893275	          0.08186242	          0.21640626	          0.16933175	          0.16919679	          0.05000013	          0.05000010	          0.25957455	          0.08775697	          0.16254945	          0.05893357	          0.20671569	          0.21863677	          0.17147760	          0.05000002	          0.05000005	          0.05000000	          0.05000000	          0.05000012	          0.05000010	          0.61320918	          0.29812146	          0.15230668	          0.61540000	          0.63846716	          0.39725048	          0.05000178	          0.08187404	          0.07866243	
